<svg width="1512" height="1930" viewBox="0 0 1512 1930" fill="none" xmlns="http://www.w3.org/2000/svg">
<g opacity="0.05" clip-path="url(#clip0_325_856)">
<path d="M1512 13.9999L-9.65595e-05 13.9999" stroke="#2F2B29" stroke-width="0.700002"/>
<path d="M1512 49L-9.65595e-05 48.9999" stroke="#2F2B29" stroke-width="0.700002"/>
<path d="M1512 84L-9.65595e-05 83.9999" stroke="#2F2B29" stroke-width="0.700002"/>
<path d="M1512 119L-9.65595e-05 119" stroke="#2F2B29" stroke-width="0.700002"/>
<path d="M1512 154L-9.65595e-05 154" stroke="#2F2B29" stroke-width="0.700002"/>
<path d="M1512 189L-9.65595e-05 189" stroke="#2F2B29" stroke-width="0.700002"/>
<path d="M1512 224L-9.65595e-05 224" stroke="#2F2B29" stroke-width="0.700002"/>
<path d="M1512 259L-9.65595e-05 259" stroke="#2F2B29" stroke-width="0.700002"/>
<path d="M1512 294L-9.65595e-05 294" stroke="#2F2B29" stroke-width="0.700002"/>
<path d="M1512 329L-9.65595e-05 329" stroke="#2F2B29" stroke-width="0.700002"/>
<path d="M1512 364L-9.65595e-05 364" stroke="#2F2B29" stroke-width="0.700002"/>
<path d="M1512 399L-9.65595e-05 399" stroke="#2F2B29" stroke-width="0.700002"/>
<path d="M1512 434L-9.65595e-05 434" stroke="#2F2B29" stroke-width="0.700002"/>
<path d="M1512 469L-9.65595e-05 469" stroke="#2F2B29" stroke-width="0.700002"/>
<path d="M1512 504L-9.65595e-05 504" stroke="#2F2B29" stroke-width="0.700002"/>
<path d="M1512 539L-9.65595e-05 539" stroke="#2F2B29" stroke-width="0.700002"/>
<path d="M1512 574L-9.65595e-05 574" stroke="#2F2B29" stroke-width="0.700002"/>
<path d="M1512 609L-9.65595e-05 609" stroke="#2F2B29" stroke-width="0.700002"/>
<path d="M1512 644L-9.65595e-05 644" stroke="#2F2B29" stroke-width="0.700002"/>
<path d="M1512 679L-9.65595e-05 679" stroke="#2F2B29" stroke-width="0.700002"/>
<path d="M1512 714L-9.65595e-05 714" stroke="#2F2B29" stroke-width="0.700002"/>
<path d="M1512 749L-9.65595e-05 749" stroke="#2F2B29" stroke-width="0.700002"/>
<path d="M1512 784L-9.65595e-05 784" stroke="#2F2B29" stroke-width="0.700002"/>
<path d="M1512 819L-9.65595e-05 819" stroke="#2F2B29" stroke-width="0.700002"/>
<path d="M1512 854L-9.65595e-05 854" stroke="#2F2B29" stroke-width="0.700002"/>
<path d="M1512 889L-9.65595e-05 889" stroke="#2F2B29" stroke-width="0.700002"/>
<path d="M1512 924L-9.65595e-05 924" stroke="#2F2B29" stroke-width="0.700002"/>
<path d="M1512 959L-9.65595e-05 959" stroke="#2F2B29" stroke-width="0.700002"/>
<path d="M1512 994L-9.65595e-05 994" stroke="#2F2B29" stroke-width="0.700002"/>
<path d="M1512 1029L-9.65595e-05 1029" stroke="#2F2B29" stroke-width="0.700002"/>
<path d="M1512 1064L-9.65595e-05 1064" stroke="#2F2B29" stroke-width="0.700002"/>
<path d="M1512 1099L-9.65595e-05 1099" stroke="#2F2B29" stroke-width="0.700002"/>
<path d="M1512 1134L-9.65595e-05 1134" stroke="#2F2B29" stroke-width="0.700002"/>
<path d="M1512 1169L-9.65595e-05 1169" stroke="#2F2B29" stroke-width="0.700002"/>
<path d="M1512 1204L-9.65595e-05 1204" stroke="#2F2B29" stroke-width="0.700002"/>
<path d="M1512 1239L-9.65595e-05 1239" stroke="#2F2B29" stroke-width="0.700002"/>
<path d="M1512 1274L-9.65595e-05 1274" stroke="#2F2B29" stroke-width="0.700002"/>
<path d="M1512 1309L-9.65595e-05 1309" stroke="#2F2B29" stroke-width="0.700002"/>
<path d="M1512 1344L-9.65595e-05 1344" stroke="#2F2B29" stroke-width="0.700002"/>
<path d="M1512 1379L-9.65595e-05 1379" stroke="#2F2B29" stroke-width="0.700002"/>
<path d="M1512 1414L-9.65595e-05 1414" stroke="#2F2B29" stroke-width="0.700002"/>
<path d="M1512 1449L-9.65595e-05 1449" stroke="#2F2B29" stroke-width="0.700002"/>
<path d="M1512 1484L-9.65595e-05 1484" stroke="#2F2B29" stroke-width="0.700002"/>
<path d="M1512 1519L-9.65595e-05 1519" stroke="#2F2B29" stroke-width="0.700002"/>
<path d="M1512 1554L-9.65595e-05 1554" stroke="#2F2B29" stroke-width="0.700002"/>
<path d="M1512 1589L-9.65595e-05 1589" stroke="#2F2B29" stroke-width="0.700002"/>
<path d="M1512 1624L-9.65595e-05 1624" stroke="#2F2B29" stroke-width="0.700002"/>
<path d="M1512 1659L-9.65595e-05 1659" stroke="#2F2B29" stroke-width="0.700002"/>
<path d="M1512 1694L-9.65595e-05 1694" stroke="#2F2B29" stroke-width="0.700002"/>
<path d="M1512 1729L-9.65595e-05 1729" stroke="#2F2B29" stroke-width="0.700002"/>
<path d="M1512 1764L-9.65595e-05 1764" stroke="#2F2B29" stroke-width="0.700002"/>
<path d="M1512 1799L-9.65595e-05 1799" stroke="#2F2B29" stroke-width="0.700002"/>
<path d="M1512 1834L-9.65595e-05 1834" stroke="#2F2B29" stroke-width="0.700002"/>
<path d="M1512 1869L-9.65595e-05 1869" stroke="#2F2B29" stroke-width="0.700002"/>
<path d="M1512 1904L-9.65595e-05 1904" stroke="#2F2B29" stroke-width="0.700002"/>
<path d="M1491 6.10352e-05L1491 2688" stroke="#2F2B29" stroke-width="0.700002"/>
<path d="M1456 6.10352e-05L1456 2688" stroke="#2F2B29" stroke-width="0.700002"/>
<path d="M1421 6.10352e-05L1421 2688" stroke="#2F2B29" stroke-width="0.700002"/>
<path d="M1386 0L1386 2688" stroke="#2F2B29" stroke-width="0.700002"/>
<path d="M1351 0L1351 2688" stroke="#2F2B29" stroke-width="0.700002"/>
<path d="M1316 -3.05176e-05L1316 2688" stroke="#2F2B29" stroke-width="0.700002"/>
<path d="M1281 -3.05176e-05L1281 2688" stroke="#2F2B29" stroke-width="0.700002"/>
<path d="M1246 -9.15527e-05L1246 2688" stroke="#2F2B29" stroke-width="0.700002"/>
<path d="M1211 -9.15527e-05L1211 2688" stroke="#2F2B29" stroke-width="0.700002"/>
<path d="M1176 -0.00012207L1176 2688" stroke="#2F2B29" stroke-width="0.700002"/>
<path d="M1141 -0.00012207L1141 2688" stroke="#2F2B29" stroke-width="0.700002"/>
<path d="M1106 -0.000152588L1106 2688" stroke="#2F2B29" stroke-width="0.700002"/>
<path d="M1071 -0.000152588L1071 2688" stroke="#2F2B29" stroke-width="0.700002"/>
<path d="M1036 -0.000213623L1036 2688" stroke="#2F2B29" stroke-width="0.700002"/>
<path d="M1001 -0.000213623L1001 2688" stroke="#2F2B29" stroke-width="0.700002"/>
<path d="M966 -0.000213623L966 2688" stroke="#2F2B29" stroke-width="0.700002"/>
<path d="M931 -0.000244141L931 2688" stroke="#2F2B29" stroke-width="0.700002"/>
<path d="M896 -0.000244141L896 2688" stroke="#2F2B29" stroke-width="0.700002"/>
<path d="M861 -0.000305176L861 2688" stroke="#2F2B29" stroke-width="0.700002"/>
<path d="M826 -0.000305176L826 2688" stroke="#2F2B29" stroke-width="0.700002"/>
<path d="M791 -0.000335693L791 2688" stroke="#2F2B29" stroke-width="0.700002"/>
<path d="M756 -0.000335693L756 2688" stroke="#2F2B29" stroke-width="0.700002"/>
<path d="M721 -0.000366211L721 2688" stroke="#2F2B29" stroke-width="0.700002"/>
<path d="M686 -0.000366211L686 2688" stroke="#2F2B29" stroke-width="0.700002"/>
<path d="M651 -0.000427246L651 2688" stroke="#2F2B29" stroke-width="0.700002"/>
<path d="M616 -0.000427246L616 2688" stroke="#2F2B29" stroke-width="0.700002"/>
<path d="M581 -0.000457764L581 2688" stroke="#2F2B29" stroke-width="0.700002"/>
<path d="M546 -0.000457764L546 2688" stroke="#2F2B29" stroke-width="0.700002"/>
<path d="M511 -0.000518799L511 2688" stroke="#2F2B29" stroke-width="0.700002"/>
<path d="M476 -0.000518799L476 2688" stroke="#2F2B29" stroke-width="0.700002"/>
<path d="M441 -0.000549316L441 2688" stroke="#2F2B29" stroke-width="0.700002"/>
<path d="M406 -0.000549316L406 2688" stroke="#2F2B29" stroke-width="0.700002"/>
<path d="M371 -0.000579834L371 2688" stroke="#2F2B29" stroke-width="0.700002"/>
<path d="M336 -0.000579834L336 2688" stroke="#2F2B29" stroke-width="0.700002"/>
<path d="M301 -0.000640869L301 2688" stroke="#2F2B29" stroke-width="0.700002"/>
<path d="M266 -0.000640869L266 2688" stroke="#2F2B29" stroke-width="0.700002"/>
<path d="M231 -0.000671387L231 2688" stroke="#2F2B29" stroke-width="0.700002"/>
<path d="M196 -0.000671387L196 2688" stroke="#2F2B29" stroke-width="0.700002"/>
<path d="M161 -0.000701904L161 2688" stroke="#2F2B29" stroke-width="0.700002"/>
<path d="M126 -0.000701904L126 2688" stroke="#2F2B29" stroke-width="0.700002"/>
<path d="M91 -0.000762939L90.9999 2688" stroke="#2F2B29" stroke-width="0.700002"/>
<path d="M56.0001 -0.000762939L56 2688" stroke="#2F2B29" stroke-width="0.700002"/>
<path d="M21.0001 -0.000793457L21 2688" stroke="#2F2B29" stroke-width="0.700002"/>
</g>
<defs>
<clipPath id="clip0_325_856">
<rect width="2688" height="1512" fill="white" transform="translate(1512 6.10352e-05) rotate(90)"/>
</clipPath>
</defs>
</svg>
